<?xml version="1.0" standalone="no"?>
<!DOCTYPE svg PUBLIC "-//W3C//DTD SVG 20010904//EN"
 "http://www.w3.org/TR/2001/REC-SVG-20010904/DTD/svg10.dtd">
<svg version="1.0" xmlns="http://www.w3.org/2000/svg"
 width="1024.000000pt" height="1024.000000pt" viewBox="0 0 1024.000000 1024.000000"
 preserveAspectRatio="xMidYMid meet">

<g transform="translate(0.000000,1024.000000) scale(0.100000,-0.100000)"
fill="#000000" stroke="none">
<path d="M5010 6647 c-27 -8 -211 -185 -808 -781 -425 -424 -782 -786 -794
-805 -60 -95 13 -227 130 -239 57 -5 103 12 155 58 l37 32 1 -183 c0 -101 2
-377 5 -614 2 -236 4 -441 4 -454 0 -35 75 -106 128 -120 29 -8 186 -11 520
-9 l478 3 41 27 c110 72 103 237 -11 289 -38 17 -72 19 -433 19 l-392 0 -3
683 -4 682 494 493 c271 270 497 492 502 492 5 0 232 -221 504 -491 l496 -491
0 -684 0 -684 -239 0 -239 0 -7 28 c-4 15 -5 214 -3 443 l3 415 -27 41 c-16
24 -44 49 -70 62 -43 20 -56 21 -523 21 -474 0 -478 0 -522 -22 -71 -36 -113
-124 -93 -197 14 -52 46 -90 94 -112 38 -17 73 -19 424 -19 l382 0 0 -435 c0
-356 3 -441 14 -463 21 -41 68 -81 107 -92 20 -6 210 -10 457 -10 465 0 465 0
530 63 18 17 37 47 42 67 6 21 10 275 10 644 l0 608 35 -31 c59 -52 92 -64
154 -58 61 7 94 27 129 77 29 43 36 71 28 118 -6 33 -92 122 -794 820 -433
430 -798 789 -812 796 -37 20 -90 25 -130 13z"/>
<path d="M4975 5542 c-151 -72 -168 -267 -32 -359 81 -55 163 -53 244 6 110
80 106 262 -7 337 -56 37 -146 44 -205 16z"/>
</g>
</svg>
